<svg width="234" height="61" viewBox="0 0 234 61" fill="none" xmlns="http://www.w3.org/2000/svg">
<path fill-rule="evenodd" clip-rule="evenodd" d="M17.8155 0.499889L37.8797 12.6565C39.0797 13.3828 40.0615 15.323 40.0615 16.9677V56.8666C40.0615 58.5112 39.0797 59.2628 37.8797 58.5357L17.8155 46.3799C16.6157 45.6528 15.6343 43.7126 15.6343 42.0688V2.16981C15.6343 0.523589 16.6157 -0.227199 17.8155 0.499889" fill="black"/>
<path fill-rule="evenodd" clip-rule="evenodd" d="M67.4261 0.770954L47.3614 12.9275C46.1613 13.653 45.1804 15.5933 45.1804 17.2395V57.1384C45.1804 58.7823 46.1613 59.5339 47.3614 58.8068L67.4261 46.6518C68.6261 45.9247 69.6078 43.9845 69.6078 42.339V2.44007C69.6078 0.794636 68.6261 0.0438662 67.4261 0.770954Z" fill="black"/>
<path fill-rule="evenodd" clip-rule="evenodd" d="M12.4514 7.28785V42.0679C12.4514 44.7005 13.9025 47.7471 16.1737 49.1231L32.9209 59.2691L10.6748 51.3715C9.35443 50.902 8.4939 48.7042 8.4939 47.0596V7.16058C8.4939 5.49539 9.95359 5.14688 10.9589 5.39661C11.9323 5.64003 12.4514 6.443 12.4514 7.28785" fill="black"/>
<path fill-rule="evenodd" clip-rule="evenodd" d="M5.31113 14.2703V47.0596C5.31113 49.6913 6.52759 53.2438 9.0334 54.1155L26.5986 60.2222L7.86665 56.9013C4.43284 56.2936 0.720703 55.6882 0.720703 51.0751V13.4571C0.720703 8.07898 5.31113 7.00653 5.31113 14.2703" fill="black"/>
<path fill-rule="evenodd" clip-rule="evenodd" d="M72.6552 7.28785V42.0679C72.6552 44.7005 71.2046 47.7471 68.9333 49.1231L52.186 59.2691L74.4332 51.3715C75.7527 50.902 76.6134 48.7042 76.6134 47.0596V7.16058C76.6134 5.49539 75.1542 5.14688 74.1482 5.39661C73.1751 5.64003 72.6552 6.443 72.6552 7.28785" fill="black"/>
<path fill-rule="evenodd" clip-rule="evenodd" d="M79.7963 14.2703V47.0596C79.7963 49.6913 78.579 53.2438 76.0729 54.1155L58.5081 60.2222L77.24 56.9013C80.6744 56.2936 84.386 55.6882 84.386 51.0751V13.4571C84.386 8.07898 79.7963 7.00653 79.7963 14.2703" fill="black"/>
<path fill-rule="evenodd" clip-rule="evenodd" d="M18.9718 19.0343L36.2139 29.5636C36.4385 29.6995 36.7307 29.6276 36.8665 29.4016C37.0024 29.1763 36.9309 28.8823 36.7063 28.7456L19.4638 18.2163C19.2399 18.0803 18.9472 18.1523 18.8119 18.3775C18.6757 18.6035 18.7475 18.8975 18.9718 19.0343V19.0343ZM18.9718 27.7261L36.2139 38.2555C36.4385 38.3914 36.7307 38.3203 36.8665 38.0942C37.0024 37.8682 36.9309 37.5734 36.7063 37.4367L19.4638 26.9081C19.2399 26.7714 18.9472 26.8441 18.8119 27.0702C18.6757 27.2954 18.7475 27.5894 18.9718 27.7261V27.7261ZM18.9718 36.4188C18.7475 36.2813 18.6757 35.9873 18.8119 35.762C18.9472 35.536 19.2399 35.4641 19.4638 35.6008L36.7063 46.1294C36.9309 46.2661 37.0024 46.5601 36.8665 46.7853C36.7307 47.0121 36.4385 47.084 36.2139 46.9473L18.9718 36.4188V36.4188ZM65.2734 36.4188L48.0314 46.9473C47.8068 47.084 47.5146 47.0121 47.378 46.7853C47.2421 46.5601 47.3143 46.2661 47.5382 46.1294L64.781 35.6008C65.0056 35.4641 65.2978 35.536 65.4337 35.762C65.5695 35.9873 65.4981 36.2813 65.2734 36.4188V36.4188ZM65.2734 27.7261C65.4981 27.5894 65.5695 27.2954 65.4337 27.0702C65.2978 26.8441 65.0056 26.7714 64.781 26.9081L47.5382 37.4367C47.3143 37.5734 47.2421 37.8682 47.378 38.0942C47.5146 38.3203 47.8068 38.3914 48.0314 38.2555L65.2734 27.7261ZM65.2734 19.0343L48.0314 29.5636C47.8068 29.6995 47.5146 29.6276 47.378 29.4016C47.2421 29.1763 47.3143 28.8823 47.5382 28.7456L64.781 18.2163C65.0056 18.0803 65.2978 18.1523 65.4337 18.3775C65.5695 18.6035 65.4981 18.8975 65.2734 19.0343ZM65.2734 10.3424C65.4981 10.2057 65.5695 9.91089 65.4337 9.68565C65.2978 9.46041 65.0056 9.38769 64.781 9.52442L47.5382 20.053C47.3143 20.1897 47.2421 20.4837 47.378 20.7097C47.5146 20.9358 47.8068 21.0077 48.0314 20.871L65.2734 10.3424ZM18.9718 10.3424C18.7475 10.2057 18.6757 9.91089 18.8119 9.68565C18.9472 9.46041 19.2399 9.38769 19.4638 9.52442L36.7063 20.053C36.9309 20.1897 37.0024 20.4837 36.8665 20.7097C36.7307 20.9358 36.4385 21.0077 36.2139 20.871L18.9718 10.3424" fill="white"/>
<path d="M102.584 20.8676H108.745C111.603 20.8676 113.667 21.2867 114.935 22.1247C116.212 22.9628 116.851 24.2865 116.851 26.096C116.851 27.315 116.539 28.3292 115.914 29.1387C115.29 29.9482 114.391 30.4577 113.217 30.6672V30.81C114.675 31.0862 115.744 31.6338 116.425 32.4528C117.116 33.2623 117.462 34.3622 117.462 35.7527C117.462 37.6288 116.809 39.1001 115.503 40.1667C114.206 41.2238 112.398 41.7524 110.08 41.7524H102.584V20.8676ZM105.977 29.4958H109.242C110.662 29.4958 111.698 29.272 112.351 28.8244C113.004 28.3673 113.331 27.5959 113.331 26.5102C113.331 25.5293 112.976 24.8198 112.266 24.3818C111.566 23.9437 110.449 23.7246 108.916 23.7246H105.977V29.4958ZM105.977 32.2671V38.8811H109.583C111.003 38.8811 112.072 38.6097 112.791 38.0668C113.52 37.5145 113.884 36.6479 113.884 35.467C113.884 34.3813 113.515 33.5766 112.777 33.0528C112.039 32.529 110.917 32.2671 109.413 32.2671H105.977Z" fill="black"/>
<path d="M135.348 33.8242C135.348 36.405 134.691 38.4192 133.375 39.8667C132.06 41.3143 130.228 42.0381 127.881 42.0381C126.414 42.0381 125.118 41.7048 123.992 41.0381C122.865 40.3715 122 39.4144 121.394 38.1668C120.788 36.9193 120.485 35.4717 120.485 33.8242C120.485 31.2624 121.138 29.2625 122.444 27.8245C123.75 26.3864 125.591 25.6674 127.966 25.6674C130.238 25.6674 132.036 26.4055 133.361 27.8816C134.686 29.3482 135.348 31.3291 135.348 33.8242ZM123.921 33.8242C123.921 37.4716 125.26 39.2953 127.938 39.2953C130.588 39.2953 131.913 37.4716 131.913 33.8242C131.913 30.2148 130.578 28.4101 127.91 28.4101C126.509 28.4101 125.492 28.8768 124.858 29.8101C124.233 30.7434 123.921 32.0814 123.921 33.8242Z" fill="black"/>
<path d="M153.121 33.8242C153.121 36.405 152.464 38.4192 151.148 39.8667C149.833 41.3143 148.001 42.0381 145.654 42.0381C144.187 42.0381 142.891 41.7048 141.765 41.0381C140.639 40.3715 139.773 39.4144 139.167 38.1668C138.561 36.9193 138.258 35.4717 138.258 33.8242C138.258 31.2624 138.911 29.2625 140.217 27.8245C141.523 26.3864 143.364 25.6674 145.74 25.6674C148.011 25.6674 149.809 26.4055 151.134 27.8816C152.459 29.3482 153.121 31.3291 153.121 33.8242ZM141.694 33.8242C141.694 37.4716 143.033 39.2953 145.711 39.2953C148.361 39.2953 149.686 37.4716 149.686 33.8242C149.686 30.2148 148.352 28.4101 145.683 28.4101C144.282 28.4101 143.265 28.8768 142.631 29.8101C142.006 30.7434 141.694 32.0814 141.694 33.8242Z" fill="black"/>
<path d="M160.191 33.4099L162.079 31.0386L166.82 25.9531H170.667L164.35 32.7385L171.065 41.7524H167.147L162.107 34.8241L160.276 36.3383V41.7524H156.968V19.5248H160.276V30.3672L160.106 33.4099H160.191Z" fill="black"/>
<path d="M184.153 37.2526C184.153 38.7954 183.595 39.981 182.478 40.8096C181.361 41.6286 179.762 42.0381 177.68 42.0381C175.588 42.0381 173.909 41.719 172.64 41.081V38.1811C174.486 39.0382 176.204 39.4668 177.793 39.4668C179.847 39.4668 180.874 38.843 180.874 37.5954C180.874 37.1954 180.76 36.8621 180.533 36.5955C180.306 36.3288 179.932 36.0526 179.412 35.7669C178.891 35.4812 178.167 35.1574 177.24 34.7956C175.432 34.0908 174.207 33.3861 173.563 32.6814C172.929 31.9766 172.612 31.0624 172.612 29.9386C172.612 28.5863 173.151 27.5388 174.23 26.7959C175.319 26.0436 176.795 25.6674 178.659 25.6674C180.505 25.6674 182.251 26.0436 183.898 26.7959L182.819 29.3244C181.125 28.6197 179.7 28.2673 178.546 28.2673C176.786 28.2673 175.905 28.772 175.905 29.7815C175.905 30.2767 176.133 30.6957 176.587 31.0386C177.051 31.3814 178.054 31.8528 179.596 32.4528C180.893 32.9575 181.835 33.4194 182.421 33.8385C183.008 34.2575 183.443 34.7432 183.727 35.2955C184.011 35.8384 184.153 36.4907 184.153 37.2526Z" fill="black"/>
<path d="M199.953 25.6674C199.953 26.9912 199.57 28.0959 198.803 28.9815C198.037 29.8577 196.958 30.4481 195.567 30.7529V30.8672C197.232 31.0767 198.481 31.6005 199.314 32.4385C200.147 33.2671 200.563 34.3718 200.563 35.7527C200.563 37.7621 199.858 39.3144 198.448 40.4096C197.038 41.4952 195.032 42.0381 192.429 42.0381C190.13 42.0381 188.189 41.6619 186.609 40.9096V37.924C187.489 38.3621 188.421 38.7001 189.406 38.9382C190.39 39.1763 191.336 39.2953 192.245 39.2953C193.854 39.2953 195.056 38.9954 195.85 38.3954C196.645 37.7954 197.043 36.8669 197.043 35.6098C197.043 34.4956 196.603 33.6766 195.723 33.1528C194.843 32.629 193.461 32.3671 191.578 32.3671H189.775V29.6387H191.606C194.918 29.6387 196.574 28.4863 196.574 26.1817C196.574 25.2865 196.286 24.596 195.709 24.1103C195.131 23.6247 194.279 23.3818 193.153 23.3818C192.368 23.3818 191.611 23.4961 190.882 23.7246C190.153 23.9437 189.292 24.377 188.298 25.0246L186.666 22.6818C188.568 21.2724 190.778 20.5677 193.295 20.5677C195.387 20.5677 197.019 21.02 198.193 21.9247C199.366 22.8294 199.953 24.077 199.953 25.6674Z" fill="black"/>
<path d="M203.332 32.8528C203.332 24.6817 206.639 20.5962 213.254 20.5962C214.295 20.5962 215.176 20.6772 215.895 20.8391V23.6389C215.176 23.4294 214.343 23.3247 213.396 23.3247C211.172 23.3247 209.502 23.9246 208.385 25.1246C207.269 26.3245 206.663 28.2482 206.568 30.8957H206.739C207.183 30.1243 207.808 29.5291 208.612 29.1101C209.417 28.6816 210.363 28.4673 211.452 28.4673C213.335 28.4673 214.802 29.0482 215.852 30.2101C216.903 31.3719 217.428 32.948 217.428 34.9384C217.428 37.1288 216.818 38.862 215.597 40.1382C214.385 41.4048 212.729 42.0381 210.628 42.0381C209.142 42.0381 207.851 41.681 206.753 40.9667C205.655 40.2429 204.808 39.1954 204.212 37.824C203.625 36.4431 203.332 34.786 203.332 32.8528ZM210.571 39.2668C211.717 39.2668 212.597 38.8954 213.212 38.1525C213.836 37.4097 214.149 36.3479 214.149 34.967C214.149 33.767 213.855 32.8242 213.269 32.1385C212.691 31.4529 211.821 31.11 210.657 31.11C209.937 31.11 209.275 31.2672 208.669 31.5814C208.064 31.8862 207.586 32.31 207.235 32.8528C206.885 33.3861 206.71 33.9337 206.71 34.4956C206.71 35.8384 207.07 36.9716 207.789 37.8954C208.518 38.8097 209.445 39.2668 210.571 39.2668Z" fill="black"/>
<path d="M226.925 28.7101C229.016 28.7101 230.673 29.2672 231.893 30.3815C233.114 31.4957 233.725 33.0147 233.725 34.9384C233.725 37.1669 233.029 38.9097 231.638 40.1667C230.256 41.4143 228.288 42.0381 225.732 42.0381C223.414 42.0381 221.592 41.6619 220.267 40.9096V37.8668C221.034 38.3049 221.914 38.643 222.908 38.8811C223.901 39.1192 224.824 39.2382 225.676 39.2382C227.18 39.2382 228.326 38.9001 229.111 38.224C229.897 37.5478 230.289 36.5574 230.289 35.2527C230.289 32.7576 228.709 31.51 225.548 31.51C225.103 31.51 224.554 31.5576 223.901 31.6528C223.248 31.7386 222.676 31.8386 222.184 31.9528L220.693 31.0672L221.488 20.8676H232.277V23.8532H224.426L223.958 29.0244C224.289 28.9673 224.691 28.9006 225.165 28.8244C225.647 28.7482 226.234 28.7101 226.925 28.7101Z" fill="black"/>
</svg>
